<?xml version="1.0" standalone="no"?>
<!DOCTYPE svg PUBLIC "-//W3C//DTD SVG 20010904//EN"
 "http://www.w3.org/TR/2001/REC-SVG-20010904/DTD/svg10.dtd">
<svg version="1.0" xmlns="http://www.w3.org/2000/svg"
 width="141.000000pt" height="124.000000pt" viewBox="0 0 141.000000 124.000000"
 preserveAspectRatio="xMidYMid meet">

<g transform="translate(0.000000,124.000000) scale(0.100000,-0.100000)"
fill="#000000" stroke="none">
<path d="M145 1090 c-20 -22 -23 -63 -6 -84 7 -8 41 -28 75 -44 l63 -30 21
-78 c11 -44 35 -139 53 -213 19 -83 38 -140 50 -152 18 -18 38 -19 295 -19
168 0 283 4 294 10 14 7 36 61 75 183 30 95 55 178 55 185 0 40 -82 68 -112
38 -8 -8 -34 -75 -58 -150 l-44 -136 -205 2 -205 3 -51 200 c-27 110 -54 206
-59 214 -11 18 -172 91 -200 91 -13 0 -31 -9 -41 -20z"/>
<path d="M432 397 c-26 -27 -29 -82 -7 -114 19 -27 63 -37 99 -23 30 11 60 68
49 97 -22 63 -99 85 -141 40z"/>
<path d="M850 400 c-43 -43 -32 -112 23 -138 57 -28 117 12 117 76 0 27 -7 45
-23 60 -30 29 -89 30 -117 2z"/>
</g>
</svg>
